<svg width="256" height="256" viewBox="0 0 256 256" fill="none" xmlns="http://www.w3.org/2000/svg">
<g clip-path="url(#clip0_11_6)">
<path d="M40.2159 221L44.9432 193L152.58 75.5455H64.5795L71.4886 34.8182H223.489L218.761 62.8182L111.125 180.273H199.125L192.216 221H40.2159Z" fill="white"/>
<path d="M40.2159 221L39.2299 220.834L39.0329 222H40.2159V221ZM44.9432 193L44.2059 192.324L44.0063 192.542L43.9571 192.834L44.9432 193ZM152.58 75.5455L153.317 76.2211L154.852 74.5455H152.58V75.5455ZM64.5795 75.5455L63.5936 75.3782L63.3956 76.5455H64.5795V75.5455ZM71.4886 34.8182V33.8182H70.644L70.5027 34.6509L71.4886 34.8182ZM223.489 34.8182L224.475 34.9847L224.672 33.8182H223.489V34.8182ZM218.761 62.8182L219.499 63.4938L219.698 63.276L219.747 62.9847L218.761 62.8182ZM111.125 180.273L110.388 179.597L108.852 181.273H111.125V180.273ZM199.125 180.273L200.111 180.44L200.309 179.273H199.125V180.273ZM192.216 221V222H193.061L193.202 221.167L192.216 221ZM41.202 221.166L45.9292 193.166L43.9571 192.834L39.2299 220.834L41.202 221.166ZM45.6804 193.676L153.317 76.2211L151.842 74.8698L44.2059 192.324L45.6804 193.676ZM152.58 74.5455H64.5795V76.5455H152.58V74.5455ZM65.5655 75.7127L72.4745 34.9854L70.5027 34.6509L63.5936 75.3782L65.5655 75.7127ZM71.4886 35.8182H223.489V33.8182H71.4886V35.8182ZM222.503 34.6517L217.775 62.6517L219.747 62.9847L224.475 34.9847L222.503 34.6517ZM218.024 62.1426L110.388 179.597L111.862 180.948L219.499 63.4938L218.024 62.1426ZM111.125 181.273H199.125V179.273H111.125V181.273ZM198.139 180.105L191.23 220.833L193.202 221.167L200.111 180.44L198.139 180.105ZM192.216 220H40.2159V222H192.216V220Z" fill="url(#paint0_linear_11_6)"/>
</g>
<defs>
<linearGradient id="paint0_linear_11_6" x1="217" y1="214.496" x2="38.9438" y2="41.562" gradientUnits="userSpaceOnUse">
<stop/>
<stop offset="0.5"/>
<stop offset="0.5" stop-color="white"/>
<stop offset="1" stop-color="white"/>
</linearGradient>
<clipPath id="clip0_11_6">
<rect width="256" height="256" fill="white"/>
</clipPath>
</defs>
</svg>
