<svg width="256" height="256" viewBox="0 0 256 256" fill="none" xmlns="http://www.w3.org/2000/svg">
<path d="M34.5819 160L36.0961 151.031L70.5733 113.409H42.3858L44.5989 100.364H93.2864L91.7722 109.332L57.2949 146.955H85.4824L83.2694 160H34.5819Z" fill="black"/>
<path d="M129.213 114.909H130.623V144.764C130.623 147.817 129.911 150.547 128.487 152.955C127.078 155.347 125.155 157.241 122.718 158.635C120.282 160.015 117.515 160.705 114.418 160.705C111.35 160.705 108.591 160.007 106.14 158.613C103.688 157.219 101.751 155.325 100.327 152.933C98.9033 150.525 98.1987 147.803 98.2134 144.764V114.909H99.6225V144.764C99.6225 147.553 100.261 150.041 101.538 152.228C102.83 154.415 104.591 156.14 106.822 157.402C109.053 158.664 111.585 159.295 114.418 159.295C117.251 159.295 119.783 158.664 122.014 157.402C124.245 156.14 125.999 154.415 127.276 152.228C128.568 150.041 129.213 147.553 129.213 144.764V114.909ZM178.532 114.909V160H177.123L146.299 117.551H146.123V160H144.713V114.909H146.123L176.946 157.358H177.123V114.909H178.532ZM192.606 160V114.909H216.649V116.318H194.015V136.75H215.328V138.159H194.015V158.591H217.265V160H192.606Z" fill="white"/>
<path d="M34.5819 160L33.5958 159.834L33.3989 161H34.5819V160ZM36.0961 151.031L35.3588 150.356L35.1592 150.573L35.11 150.865L36.0961 151.031ZM70.5733 113.409L71.3106 114.085L72.8461 112.409H70.5733V113.409ZM42.3858 113.409L41.3999 113.242L41.2019 114.409H42.3858V113.409ZM44.5989 100.364V99.3636H43.7543L43.613 100.196L44.5989 100.364ZM93.2864 100.364L94.2724 100.53L94.4694 99.3636H93.2864V100.364ZM91.7722 109.332L92.5094 110.008L92.7091 109.79L92.7582 109.499L91.7722 109.332ZM57.2949 146.955L56.5577 146.279L55.0221 147.955H57.2949V146.955ZM85.4824 146.955L86.4683 147.122L86.6664 145.955H85.4824V146.955ZM83.2694 160V161H84.114L84.2553 160.167L83.2694 160ZM35.5679 160.166L37.0821 151.198L35.11 150.865L33.5958 159.834L35.5679 160.166ZM36.8333 151.707L71.3106 114.085L69.8361 112.733L35.3588 150.356L36.8333 151.707ZM70.5733 112.409H42.3858V114.409H70.5733V112.409ZM43.3717 113.576L45.5848 100.531L43.613 100.196L41.3999 113.242L43.3717 113.576ZM44.5989 101.364H93.2864V99.3636H44.5989V101.364ZM92.3004 100.197L90.7862 109.166L92.7582 109.499L94.2724 100.53L92.3004 100.197ZM91.0349 108.657L56.5577 146.279L58.0322 147.63L92.5094 110.008L91.0349 108.657ZM57.2949 147.955H85.4824V145.955H57.2949V147.955ZM84.4965 146.787L82.2834 159.833L84.2553 160.167L86.4683 147.122L84.4965 146.787ZM83.2694 159H34.5819V161H83.2694V159ZM129.213 114.909V113.909H128.213V114.909H129.213ZM130.623 114.909H131.623V113.909H130.623V114.909ZM128.487 152.955L127.626 152.445L127.625 152.447L128.487 152.955ZM122.718 158.635L123.211 159.505L123.215 159.503L122.718 158.635ZM106.14 158.613L106.634 157.744L106.634 157.744L106.14 158.613ZM100.327 152.933L99.4663 153.442L99.4677 153.444L100.327 152.933ZM98.2134 144.764L99.2134 144.769V144.764H98.2134ZM98.2134 114.909V113.909H97.2134V114.909H98.2134ZM99.6225 114.909H100.623V113.909H99.6225V114.909ZM101.538 152.228L100.674 152.732L100.677 152.737L101.538 152.228ZM106.822 157.402L107.315 156.532L107.315 156.532L106.822 157.402ZM122.014 157.402L122.506 158.272L122.506 158.272L122.014 157.402ZM127.276 152.228L126.415 151.719L126.412 151.724L127.276 152.228ZM129.213 115.909H130.623V113.909H129.213V115.909ZM129.623 114.909V144.764H131.623V114.909H129.623ZM129.623 144.764C129.623 147.655 128.95 150.206 127.626 152.445L129.348 153.464C130.871 150.888 131.623 147.979 131.623 144.764H129.623ZM127.625 152.447C126.305 154.688 124.509 156.458 122.222 157.767L123.215 159.503C125.801 158.023 127.85 156.006 129.349 153.462L127.625 152.447ZM122.226 157.765C119.955 159.051 117.361 159.705 114.418 159.705V161.705C117.669 161.705 120.609 160.979 123.211 159.505L122.226 157.765ZM114.418 159.705C111.508 159.705 108.921 159.045 106.634 157.744L105.645 159.482C108.26 160.97 111.193 161.705 114.418 161.705V159.705ZM106.634 157.744C104.331 156.434 102.52 154.663 101.186 152.421L99.4677 153.444C100.981 155.987 103.045 158.003 105.645 159.482L106.634 157.744ZM101.188 152.423C99.8639 150.185 99.1995 147.643 99.2134 144.769L97.2134 144.759C97.198 147.962 97.9427 150.866 99.4663 153.442L101.188 152.423ZM99.2134 144.764V114.909H97.2134V144.764H99.2134ZM98.2134 115.909H99.6225V113.909H98.2134V115.909ZM98.6225 114.909V144.764H100.623V114.909H98.6225ZM98.6225 144.764C98.6225 147.712 99.2992 150.377 100.674 152.732L102.402 151.724C101.223 149.705 100.623 147.394 100.623 144.764H98.6225ZM100.677 152.737C102.059 155.076 103.948 156.925 106.33 158.272L107.315 156.532C105.234 155.355 103.601 153.754 102.399 151.719L100.677 152.737ZM106.33 158.272C108.726 159.628 111.431 160.295 114.418 160.295V158.295C111.739 158.295 109.38 157.7 107.315 156.532L106.33 158.272ZM114.418 160.295C117.405 160.295 120.11 159.628 122.506 158.272L121.521 156.532C119.456 157.7 117.097 158.295 114.418 158.295V160.295ZM122.506 158.272C124.889 156.924 126.772 155.074 128.139 152.732L126.412 151.724C125.226 153.756 123.601 155.355 121.521 156.532L122.506 158.272ZM128.137 152.737C129.528 150.381 130.213 147.714 130.213 144.764H128.213C128.213 147.392 127.607 149.701 126.415 151.719L128.137 152.737ZM130.213 144.764V114.909H128.213V144.764H130.213ZM178.532 114.909H179.532V113.909H178.532V114.909ZM178.532 160V161H179.532V160H178.532ZM177.123 160L176.313 160.588L176.613 161H177.123V160ZM146.299 117.551L147.108 116.964L146.808 116.551H146.299V117.551ZM146.123 117.551V116.551H145.123V117.551H146.123ZM146.123 160V161H147.123V160H146.123ZM144.713 160H143.713V161H144.713V160ZM144.713 114.909V113.909H143.713V114.909H144.713ZM146.123 114.909L146.932 114.322L146.632 113.909H146.123V114.909ZM176.946 157.358L176.137 157.946L176.437 158.358H176.946V157.358ZM177.123 157.358V158.358H178.123V157.358H177.123ZM177.123 114.909V113.909H176.123V114.909H177.123ZM177.532 114.909V160H179.532V114.909H177.532ZM178.532 159H177.123V161H178.532V159ZM177.932 159.412L147.108 116.964L145.489 118.139L176.313 160.588L177.932 159.412ZM146.299 116.551H146.123V118.551H146.299V116.551ZM145.123 117.551V160H147.123V117.551H145.123ZM146.123 159H144.713V161H146.123V159ZM145.713 160V114.909H143.713V160H145.713ZM144.713 115.909H146.123V113.909H144.713V115.909ZM145.313 115.497L176.137 157.946L177.756 156.77L146.932 114.322L145.313 115.497ZM176.946 158.358H177.123V156.358H176.946V158.358ZM178.123 157.358V114.909H176.123V157.358H178.123ZM177.123 115.909H178.532V113.909H177.123V115.909ZM192.606 160H191.606V161H192.606V160ZM192.606 114.909V113.909H191.606V114.909H192.606ZM216.649 114.909H217.649V113.909H216.649V114.909ZM216.649 116.318V117.318H217.649V116.318H216.649ZM194.015 116.318V115.318H193.015V116.318H194.015ZM194.015 136.75H193.015V137.75H194.015V136.75ZM215.328 136.75H216.328V135.75H215.328V136.75ZM215.328 138.159V139.159H216.328V138.159H215.328ZM194.015 138.159V137.159H193.015V138.159H194.015ZM194.015 158.591H193.015V159.591H194.015V158.591ZM217.265 158.591H218.265V157.591H217.265V158.591ZM217.265 160V161H218.265V160H217.265ZM193.606 160V114.909H191.606V160H193.606ZM192.606 115.909H216.649V113.909H192.606V115.909ZM215.649 114.909V116.318H217.649V114.909H215.649ZM216.649 115.318H194.015V117.318H216.649V115.318ZM193.015 116.318V136.75H195.015V116.318H193.015ZM194.015 137.75H215.328V135.75H194.015V137.75ZM214.328 136.75V138.159H216.328V136.75H214.328ZM215.328 137.159H194.015V139.159H215.328V137.159ZM193.015 138.159V158.591H195.015V138.159H193.015ZM194.015 159.591H217.265V157.591H194.015V159.591ZM216.265 158.591V160H218.265V158.591H216.265ZM217.265 159H192.606V161H217.265V159Z" fill="white"/>
</svg>
